{
    "asset" : {
        "generator" : "Khronos glTF Blender I/O v3.2.43",
        "version" : "2.0"
    },
    "scene" : 0,
    "scenes" : [
        {
            "name" : "Scene",
            "nodes" : [
                0
            ]
        }
    ],
    "nodes" : [
        {
            "mesh" : 0,
            "name" : "specta low res"
        }
    ],
    "materials" : [
        {
            "doubleSided" : true,
            "name" : "Specta",
            "normalTexture" : {
                "index" : 0
            },
            "pbrMetallicRoughness" : {
                "baseColorTexture" : {
                    "index" : 1
                },
                "metallicFactor" : 0,
                "metallicRoughnessTexture" : {
                    "index" : 2
                }
            }
        }
    ],
    "meshes" : [
        {
            "name" : "specta low res",
            "primitives" : [
                {
                    "attributes" : {
                        "POSITION" : 0,
                        "NORMAL" : 1,
                        "TEXCOORD_0" : 2
                    },
                    "indices" : 3,
                    "material" : 0
                }
            ]
        }
    ],
    "textures" : [
        {
            "sampler" : 0,
            "source" : 0
        },
        {
            "sampler" : 0,
            "source" : 1
        },
        {
            "sampler" : 0,
            "source" : 2
        }
    ],
    "images" : [
        {
            "mimeType" : "image/png",
            "name" : "specta_normal",
            "uri" : "specta_txt/specta_normal.png"
        },
        {
            "mimeType" : "image/png",
            "name" : "specta_diffuse",
            "uri" : "specta_txt/specta_diffuse.png"
        },
        {
            "mimeType" : "image/png",
            "name" : "specta_roughness",
            "uri" : "specta_txt/specta_roughness.png"
        }
    ],
    "accessors" : [
        {
            "bufferView" : 0,
            "componentType" : 5126,
            "count" : 82347,
            "max" : [
                0.26658323407173157,
                0.5767763257026672,
                0.5335879921913147
            ],
            "min" : [
                -0.2771194875240326,
                0.0004666518943849951,
                -0.5072140097618103
            ],
            "type" : "VEC3"
        },
        {
            "bufferView" : 1,
            "componentType" : 5126,
            "count" : 82347,
            "type" : "VEC3"
        },
        {
            "bufferView" : 2,
            "componentType" : 5126,
            "count" : 82347,
            "type" : "VEC2"
        },
        {
            "bufferView" : 3,
            "componentType" : 5125,
            "count" : 82437,
            "type" : "SCALAR"
        }
    ],
    "bufferViews" : [
        {
            "buffer" : 0,
            "byteLength" : 988164,
            "byteOffset" : 0
        },
        {
            "buffer" : 0,
            "byteLength" : 988164,
            "byteOffset" : 988164
        },
        {
            "buffer" : 0,
            "byteLength" : 658776,
            "byteOffset" : 1976328
        },
        {
            "buffer" : 0,
            "byteLength" : 329748,
            "byteOffset" : 2635104
        }
    ],
    "samplers" : [
        {
            "magFilter" : 9729,
            "minFilter" : 9987
        }
    ],
    "buffers" : [
        {
            "byteLength" : 2964852,
            "uri" : "Specta.bin"
        }
    ]
}
