{
    "asset" : {
        "generator" : "Khronos glTF Blender I/O v3.2.43",
        "version" : "2.0"
    },
    "scene" : 0,
    "scenes" : [
        {
            "name" : "Scene",
            "nodes" : [
                0
            ]
        }
    ],
    "nodes" : [
        {
            "mesh" : 0,
            "name" : "basetta low res 2",
            "scale" : [
                0.10000002384185791,
                0.10000002384185791,
                0.10000002384185791
            ]
        }
    ],
    "materials" : [
        {
            "doubleSided" : true,
            "name" : "Specta",
            "normalTexture" : {
                "index" : 0
            },
            "pbrMetallicRoughness" : {
                "baseColorTexture" : {
                    "index" : 1
                },
                "metallicFactor" : 0,
                "metallicRoughnessTexture" : {
                    "index" : 2
                }
            }
        }
    ],
    "meshes" : [
        {
            "name" : "basetta low res 2",
            "primitives" : [
                {
                    "attributes" : {
                        "POSITION" : 0,
                        "NORMAL" : 1,
                        "TEXCOORD_0" : 2
                    },
                    "indices" : 3,
                    "material" : 0
                }
            ]
        }
    ],
    "textures" : [
        {
            "sampler" : 0,
            "source" : 0
        },
        {
            "sampler" : 0,
            "source" : 1
        },
        {
            "sampler" : 0,
            "source" : 2
        }
    ],
    "images" : [
        {
            "mimeType" : "image/png",
            "name" : "basetta_normal copia",
            "uri" : "basetta_txt/basetta_normal%20copia.png"
        },
        {
            "mimeType" : "image/png",
            "name" : "basetta_diffuse",
            "uri" : "basetta_txt/basetta_diffuse.png"
        },
        {
            "mimeType" : "image/png",
            "name" : "basetta_roughness",
            "uri" : "basetta_txt/basetta_roughness.png"
        }
    ],
    "accessors" : [
        {
            "bufferView" : 0,
            "componentType" : 5126,
            "count" : 89794,
            "max" : [
                6.299984931945801,
                3.000000476837158,
                7.243235111236572
            ],
            "min" : [
                -6.299985408782959,
                2.0494595446507446e-05,
                -7.243235111236572
            ],
            "type" : "VEC3"
        },
        {
            "bufferView" : 1,
            "componentType" : 5126,
            "count" : 89794,
            "type" : "VEC3"
        },
        {
            "bufferView" : 2,
            "componentType" : 5126,
            "count" : 89794,
            "type" : "VEC2"
        },
        {
            "bufferView" : 3,
            "componentType" : 5125,
            "count" : 513000,
            "type" : "SCALAR"
        }
    ],
    "bufferViews" : [
        {
            "buffer" : 0,
            "byteLength" : 1077528,
            "byteOffset" : 0
        },
        {
            "buffer" : 0,
            "byteLength" : 1077528,
            "byteOffset" : 1077528
        },
        {
            "buffer" : 0,
            "byteLength" : 718352,
            "byteOffset" : 2155056
        },
        {
            "buffer" : 0,
            "byteLength" : 2052000,
            "byteOffset" : 2873408
        }
    ],
    "samplers" : [
        {
            "magFilter" : 9729,
            "minFilter" : 9987
        }
    ],
    "buffers" : [
        {
            "byteLength" : 4925408,
            "uri" : "basetta.bin"
        }
    ]
}
